<svg width="80" height="80" viewBox="0 0 80 80" fill="none" xmlns="http://www.w3.org/2000/svg">
<path d="M40 0C17.9062 0 0 17.9062 0 40C0 62.0938 17.9062 80 40 80C62.0938 80 80 62.0938 80 40C80 17.9062 62.0938 0 40 0ZM55 43.75H43.75V55C43.75 57.0625 42.0625 58.75 40.1406 58.75C37.9375 58.75 36.25 57.0625 36.25 55V43.75H25C22.9375 43.75 21.25 42.0625 21.25 40C21.25 37.9375 22.9375 36.25 25 36.25H36.25V25C36.25 22.9375 37.9375 21.25 40 21.25C42.0625 21.25 43.75 22.9375 43.75 25V36.25H55C57.0625 36.25 58.75 37.9375 58.75 40C58.75 42.0625 57.0625 43.75 55 43.75Z" fill="black"/>
</svg>
